<?xml version="1.0" encoding="UTF-8"?>
<svg width="340px" height="197px" viewBox="0 0 340 197" version="1.1" xmlns="http://www.w3.org/2000/svg" xmlns:xlink="http://www.w3.org/1999/xlink">
    <title>Artboard</title>
    <g id="Artboard" stroke="none" stroke-width="1" fill="none" fill-rule="evenodd">
        <path d="M61.35,192.7 C74.25,192.7 87.75,189.1 100.05,180.4 C110.85,172.3 127.05,154.9 127.05,137.5 C127.05,134.5 126.45,130.9 124.95,127.6 C121.95,120.7 115.05,122.5 112.95,126.7 C95.55,160 74.25,179.2 57.75,179.2 C46.95,179.2 35.55,167.8 35.55,142 C35.55,124 41.25,99.4 54.45,78.1 C79.35,37.9 121.95,11.8 129.15,19.6 C132.75,23.5 129.15,33.1 124.95,43.6 C123.15,48.1 121.05,52.9 119.85,57.4 C118.65,61.3 118.05,64.9 118.05,68.5 C118.05,77.2 122.25,83.8 128.25,87.7 C134.25,91.3 138.45,88.3 139.95,83.2 C142.05,76.6 146.25,66.4 151.35,56.2 C154.35,50.2 155.55,44.2 155.55,38.8 C155.55,27.1 147.75,15.4 137.55,6.4 C132.45,2.2 125.55,0.1 118.05,0.1 C110.55,0.1 102.15,2.2 94.35,5.2 C60.45,20.5 6.75,74.8 7.95,135.4 C8.55,160 20.85,178.9 34.95,186.4 C42.45,190.6 51.45,192.7 61.35,192.7 Z M268.05,192.4 C282.75,150.4 312.45,91 333.15,52.3 C337.05,44.2 340.35,35.8 340.35,27.7 C340.35,20.5 337.65,13.3 331.65,7 C325.95,1.6 322.05,1.9 318.15,8.2 C284.85,61 252.75,90.4 221.25,138.1 C232.05,97.9 238.05,79.6 247.35,52.6 C250.05,43.9 251.55,36.4 251.55,31 C251.55,21.4 247.35,13.6 239.25,6.7 C233.55,2.2 228.75,4 225.15,8.8 C193.65,51.1 146.55,129.7 134.25,159.7 C131.55,166.3 130.05,172.9 130.05,178.6 C130.05,185.2 132.15,190.3 135.45,193.6 C139.35,197.5 143.85,196.6 145.65,192.4 C161.85,155.2 188.55,112 211.95,76 C201.75,109 193.05,142.9 190.95,156.4 C190.35,160.3 190.05,163.6 190.05,166.9 C190.05,179.5 195.15,187.6 203.25,193.9 C207.75,197.2 210.45,197.2 213.75,191.2 C231.45,159.1 260.55,118.6 286.95,84.7 L286.068089,86.5016488 C271.66644,115.95304 257.478,146.482 253.95,160.3 L253.95,160 C252.15,166.6 251.55,172.3 251.55,177.1 C251.55,185.8 254.85,190.9 258.45,194.2 C263.25,198.4 265.95,198.4 268.05,192.4 Z" id="CM" fill="#C9A762" fill-rule="nonzero"></path>
    </g>
</svg>